# xmcd CD database file
#
# Track frame offsets:
#	150
#	19598
#	51966
#	85469
#	116772
#	136648
#	171690
#	191582
#	210407
#	235150
#	252267
#
# Disc length: 3678 seconds
#
# Revision: 0
# Processed by: cddbd v1.5.2PL0 Copyright (c) Steve Scherf et al.
# Submitted via: CDex 1.72
#
DISCID=960e5c0b
DTITLE=Art Pepper - 1954-1962, CD 6 sur 6
DYEAR=1900
DGENRE=Jazz
TTITLE0=Smack Up
TTITLE1=Las Cuevas De Mario
TTITLE2=A Bit Of Basie
TTITLE3=How Can You Lose
TTITLE4=Maybe Next Year
TTITLE5=Tears Inside
TTITLE6=Popo
TTITLE7=I Can't Give You Anything But Love
TTITLE8=Ol' Croix
TTITLE9=Bunny
TTITLE10=Cta
EXTD=
EXTT0=
EXTT1=
EXTT2=
EXTT3=
EXTT4=
EXTT5=
EXTT6=
EXTT7=
EXTT8=
EXTT9=
EXTT10=
PLAYORDER=
